<?xml version="1.0" encoding="UTF-8"?>
<!-- Generator: Adobe Illustrator 18.1.1, SVG Export Plug-In . SVG Version: 6.00 Build 0)  -->
<svg version="1.1" id="Capa_1" xmlns="http://www.w3.org/2000/svg" xmlns:xlink="http://www.w3.org/1999/xlink" x="0px" y="0px" viewBox="-281 404.9 32 32" enable-background="new -281 404.9 32 32" xml:space="preserve">
<g>
	<g>
		<circle fill="#2B90CF" cx="-272.3" cy="408.2" r="3.3"/>
		<path fill="#2B90CF" d="M-270.7,411.8l-0.8,0.3c-0.2-0.3-0.5-0.5-0.8-0.5c-0.3,0-0.6,0.2-0.8,0.5l-0.8-0.3c-0.1,0-0.2,0-0.3,0    s-0.1,0.2-0.1,0.3v1c0,0.1,0,0.2,0.1,0.3c0.1,0.1,0.2,0.1,0.3,0.1c0.3-0.1,0.7-0.2,0.9-0.3c0.2,0.2,0.4,0.3,0.7,0.3    c0.3,0,0.5-0.1,0.7-0.3c0.2,0.1,0.6,0.2,0.9,0.3c0.1,0,0.2,0,0.3-0.1c0.1-0.1,0.2-0.2,0.2-0.3v-1c0-0.1-0.1-0.2-0.2-0.3    C-270.4,411.8-270.6,411.8-270.7,411.8z"/>
		<path fill="#2B90CF" d="M-249.7,408.8v-1.1l-15,0v1l1.1,0h0l0,5.8v0c0,0-0.1,0.1-0.1,0.1l-2.6,2.3l-3.3-4l-2.7,3.6l-2.8-3.8    c-1.3,0.9-3.1,3.1-3.6,7.9c0,0,0,0,0,0c0,0.1,0,0.2,0,0.3c0,0,0,0,0,0c0,0,0,0,0,0l-1.6,0.6l1.6,4l0.7-0.3    c-0.5-0.3-0.9-0.8-0.9-1.4c0-0.2,0-0.3,0-0.5c0,0.7,0.6,1.3,1.3,1.3h0c0.7,0,1.4-0.6,1.4-1.4c0-0.7,0-1.3,0-1.9    c0-0.9,0.1-1.5,0.3-2.2c0.1-0.2,0.1-0.3,0.2-0.5l2.1-0.8l1.8,4.5l-0.6,0.2l-1.6-3.9l-1.4,0.6c-0.3,1.2-0.3,2.7-0.3,4.4    c0,0.1,0.3,0.6,0.3,0.7v10.9c0,0.7,0.6,1.3,1.4,1.3c0.7,0,1.4-0.5,1.4-1.4h0.4c0,0.8,0.7,1.4,1.4,1.4c0.7,0,1.4-0.6,1.4-1.3    l0-10.9c0.3-0.5,0.3-1.1,0.3-1.7v-5l1.5,1.8c0.2,0.3,0.6,0.5,0.9,0.5c0,0,0.1,0,0.1,0c0.3,0,0.6-0.1,0.9-0.3l1.2-1l0.8,0l0,8.3    h-1.1v1.1h1.1v8.2l12.8,0l0-8.2h1.1v-1.1h-1.1l0-8.3l0,0l1.1,0l0-1.1l-1.1,0l0,0l0-9.1h0L-249.7,408.8z M-255,431.7h-4.3v-2.2h4.3    V431.7z M-259.3,423v-2.1h4.3v2.1H-259.3z M-255,413.3h-4.3v-2.2h4.3V413.3z"/>
	</g>
</g>
</svg>