<?xml version="1.0" encoding="UTF-8"?>
<!-- Generator: Adobe Illustrator 18.1.1, SVG Export Plug-In . SVG Version: 6.00 Build 0)  -->
<svg version="1.1" id="Capa_1" xmlns="http://www.w3.org/2000/svg" xmlns:xlink="http://www.w3.org/1999/xlink" x="0px" y="0px" viewBox="-281 405.8 31.1 31.1" enable-background="new -281 405.8 31.1 31.1" xml:space="preserve">
<g>
	<path fill="#2B90CF" d="M-255.7,431h-3v-4.3h0.5h0.6h0.9l0.8,1l0.8-1h0.8h0.5h0.4l0,0.1c-1.5,0-2.8,1.3-2.8,2.8   C-256.1,430.2-256,430.6-255.7,431z M-255.6,429.7c0,1.3,1.1,2.4,2.4,2.4c1.3,0,2.4-1.1,2.4-2.4c0-1.3-1.1-2.4-2.4-2.4   C-254.6,427.3-255.6,428.4-255.6,429.7z M-250.2,432.4h-0.4h-0.6h-0.9l-0.9,1l-0.9-1h-0.9h-0.6h-0.5v4.5h5.9L-250.2,432.4z    M-258.4,424.2c0,1.2,1,2.2,2.2,2.2c1.2,0,2.2-1,2.2-2.2c0-1.2-1-2.2-2.2-2.2C-257.4,422-258.4,423-258.4,424.2z M-258.8,424.1   c0-1.4,1.2-2.6,2.6-2.7l0-0.1h-0.4h-0.5h-0.8l-0.8,0.9l-0.8-0.9h-0.8h-0.6h-0.4v4h2.8C-258.7,425-258.8,424.6-258.8,424.1z    M-261,419c0,1.1,0.9,2.1,2.1,2.1c1.1,0,2.1-0.9,2.1-2.1c0-1.1-0.9-2.1-2.1-2.1C-260,417-261,417.9-261,419z M-273.3,426.6h-0.9   l-0.8,1l-0.8-1h-0.8h-0.5h-0.4l0,0.1c1.5,0,2.8,1.3,2.8,2.8c0,0.5-0.1,1-0.4,1.4h3v-4.3h-0.5L-273.3,426.6L-273.3,426.6z    M-280,429.5c0,1.3,1.1,2.4,2.4,2.4c1.3,0,2.4-1.1,2.4-2.4c0-1.3-1.1-2.4-2.4-2.4C-278.9,427.1-280,428.2-280,429.5z M-276.1,432.2   h-0.9l-0.9,1l-0.9-1h-0.9h-0.6h-0.4l-0.1,4.5h5.9v-4.5h-0.5H-276.1z M-276.9,424c0,1.2,1,2.2,2.2,2.2c1.2,0,2.2-1,2.2-2.2   c0-1.2-1-2.2-2.2-2.2C-275.9,421.8-276.9,422.8-276.9,424z M-270.7,421.2L-270.7,421.2l-0.8,0l-0.8,0.9l-0.8-0.9h-0.8h-0.5h-0.4   l0,0.1c1.4,0,2.6,1.2,2.6,2.7c0,0.5-0.1,0.9-0.3,1.3h2.8v-4h-0.4H-270.7z M-274.1,418.9c0,1.1,0.9,2.1,2.1,2.1   c1.1,0,2.1-0.9,2.1-2.1s-0.9-2.1-2.1-2.1C-273.2,416.8-274.1,417.7-274.1,418.9z M-254.4,405.8h-20.7v0.7h20.7L-254.4,405.8   L-254.4,405.8z M-254.4,415.2h-20.7v0.7h20.7L-254.4,415.2L-254.4,415.2z M-264.8,409.1c0.9,0,1.5,1.9,1.5,2.7   c0,0.6-0.4,1.2-0.9,1.4v0.3l0,0l0,0.1l-1,0.1v-0.2c0,0-0.1-0.1-0.1-0.2v-0.2c-0.6-0.2-1-0.8-1-1.4   C-266.3,411-265.7,409.1-264.8,409.1z M-266.1,411.8c0,0.6,0.4,1.1,0.9,1.3l0.1,0v0.4c0,0,0,0,0.1,0l0.5,0c0.1,0,0.1,0,0.1,0V413   l0.1,0c0.5-0.2,0.9-0.7,0.9-1.3c0-0.8-0.6-2.4-1.3-2.4C-265.5,409.3-266.1,411-266.1,411.8z M-264.3,413.7l-1,0.1v0.1   c0,0,0,0.1,0,0.1l0,0l0.9-0.1l0,0l0,0C-264.3,413.9-264.3,413.9-264.3,413.7L-264.3,413.7z M-265.2,414.2c0.1,0.1,0.2,0.2,0.4,0.2   h0c0.3,0,0.4-0.1,0.5-0.3l0-0.1L-265.2,414.2L-265.2,414.2z M-261.3,411.5v-0.3h-1.4v0.3H-261.3z M-268.2,411.5h1.4v-0.3h-1.4   V411.5z M-264.6,407.3h-0.3v1.4h0.3V407.3z M-263.8,409l0.3,0.2l0.8-1.1l-0.3-0.2L-263.8,409z M-263.1,409.9l0.1,0.3l1.3-0.4   l-0.1-0.3L-263.1,409.9z M-267.9,409.8l1.3,0.4l0.1-0.3l-1.3-0.4L-267.9,409.8z M-266.9,408.1l0.8,1.1l0.3-0.2l-0.8-1.1   L-266.9,408.1z M-278.2,410.2c1,0,1.8-0.8,1.8-1.8s-0.8-1.8-1.8-1.8c-1,0-1.8,0.8-1.8,1.8C-280,409.4-279.2,410.2-278.2,410.2z    M-279.2,419.1l0,0.1h0.8v-0.7v-0.1v-3.1h0.4v3.1v0.1v0.7h0.8l0-0.1l0.7,0.1h0.6v-0.7l-0.7-0.2h-0.1v-3.1V415v-0.4h0.1l0.2-3.2   l3.2-1l-0.3-0.8l-2.9,1h-1.1l-0.7,0.8l-0.7-0.8h-0.7h-0.4h-0.3l-0.1,3.4h0.6l0,0.7h0.1v0.4v0.3v3.1h-0.1l-0.7,0.2v0.7h0.6   L-279.2,419.1z"/>
</g>
</svg>