<?xml version="1.0" encoding="UTF-8"?>
<!-- Generator: Adobe Illustrator 18.1.1, SVG Export Plug-In . SVG Version: 6.00 Build 0)  -->
<svg version="1.1" id="Capa_1" xmlns="http://www.w3.org/2000/svg" xmlns:xlink="http://www.w3.org/1999/xlink" x="0px" y="0px" viewBox="-281 404.9 32 32" enable-background="new -281 404.9 32 32" xml:space="preserve">
<g>
	<circle fill="#2B90CF" cx="-267.5" cy="409.4" r="4.5"/>
	<path fill="#2B90CF" d="M-253.8,425.7c-1.4-0.7-2.8-0.9-4.3-1.3c-0.5-0.1,1.1-0.5,1.4-0.5c0.6-0.1,1.3-0.3,1.9-0.5   c0.6-0.2,1.2-0.6,1-1.3c-0.1-0.3-0.4-0.6-0.8-0.7c0.1-0.1,0.2-0.2,0.3-0.4c0.1-0.3,0-0.5-0.3-0.7c-0.5-0.3-1.2-0.4-1.8-0.4   c0.1-0.1,0.2-0.1,0.3-0.2c0.1-0.2,0.1-0.4,0-0.6c-0.2-0.4-0.6-0.5-1-0.6c-0.4-0.1-0.8-0.1-1.2-0.1c0.2,0,0.6-0.2,0.8-0.3   c1.4-1.1-0.7-1.9-1.6-2c-0.8-0.1-0.8,1.2,0,1.2c0.9,0.1,0.4,0-0.2,0.2c-0.2,0.1-0.4,0.3-0.5,0.4c-0.2,0.4-0.1,0.8,0.1,1.1   c0.3,0.4,0.9,0.5,1.4,0.6c0,0,0,0,0.1,0c-0.1,0.1-0.3,0.1-0.4,0.2c-0.4,0.3-0.4,1,0.1,1.1c0.4,0.1,0.9,0.1,1.4,0.2c0,0,0,0,0,0   c-0.5,0.3-0.3,1,0.1,1.1c0.4,0.1,0.7,0.2,1.1,0.3c-0.3,0.1-0.6,0.1-0.8,0.2c-0.9,0.2-2.2,0.3-2.8,1.1c-0.5,0.7-0.2,1.4,0.5,1.7   c1.4,0.7,3.1,0.7,4.5,1.4C-253.7,427.1-253,426-253.8,425.7z"/>
	<path fill="#2B90CF" d="M-251.1,416.4v-3.7h-3v-0.9h-1.9c0-0.1,0-0.1,0-0.2c0-0.6-0.5-1-1.1-1c-0.6,0-1.1,0.5-1.1,1   c0,0.1,0,0.1,0,0.2h-1.8v0.9h-3.4v1.9l-0.1,0h-2.5l-1.7,2l-1.7-2l-3.6,0.5l-2.7,6.2l-1.8-1.9l-2.7-1.3l1,2.9l4.4,4.6l0,0l1.4,1.5   l1.7-1.7l-1.4-1.5l0,0l-1.2-1.3l2.6-5.4l0.2,7.7h0.2v1v0.8v8h-0.3l-1.8,0.4v1.7h1.5l1.8-0.3l0,0.3h2V435v-0.2v-8h1.1v8v0.2v1.9h2   l0-0.3l1.8,0.3h1.5v-1.7l-1.8-0.4h-0.3v-8v-0.8v-1h0.3l0.2-3v7h12.2v-9.2h1.2v-3.5H-251.1z M-278.2,420.4l-0.7-0.1l0,0.9l-0.1-0.1   l-0.5-1.6l0.4-0.4l1.5,0.7l0.2,0.2l-0.9-0.1L-278.2,420.4z M-272.8,424.9l0.5,0.5l-1.1,1l-0.5-0.5L-272.8,424.9z M-257,411.2   c0.2,0,0.4,0.2,0.4,0.4c0,0.2-0.2,0.4-0.4,0.4c-0.2,0-0.4-0.2-0.4-0.4C-257.4,411.4-257.2,411.2-257,411.2z M-252.1,416.4h-0.8v3.5   h0.8v8.2h-10.2v-14.3h2.4v0.7h5.8v-0.7h2L-252.1,416.4L-252.1,416.4z"/>
</g>
</svg>