<?xml version="1.0" encoding="UTF-8"?>
<!-- Generator: Adobe Illustrator 18.1.1, SVG Export Plug-In . SVG Version: 6.00 Build 0)  -->
<svg version="1.1" id="Capa_1" xmlns="http://www.w3.org/2000/svg" xmlns:xlink="http://www.w3.org/1999/xlink" x="0px" y="0px" viewBox="-281 404.9 32 32" enable-background="new -281 404.9 32 32" xml:space="preserve">
<g>
	<g>
		<path fill="#3E82C4" d="M-260,427.1h-9.8c-1.8,0-3.3,1.5-3.3,3.3v5.1h16.3v-5.1C-256.7,428.6-258.2,427.1-260,427.1z"/>
		<circle fill="#3E82C4" cx="-264.9" cy="420.5" r="4.7"/>
		<path fill="#3E82C4" d="M-272,414.4c0-1-0.8-1.8-1.8-1.8h-5.4c-1,0-1.8,0.8-1.8,1.8v2.8h9V414.4z"/>
		<circle fill="#3E82C4" cx="-276.5" cy="408.9" r="2.6"/>
		<path fill="#3E82C4" d="M-250.8,412.6h-5.4c-1,0-1.8,0.8-1.8,1.8v2.8h8.9v-2.8C-249.1,413.4-249.8,412.6-250.8,412.6z"/>
		<circle fill="#3E82C4" cx="-253.5" cy="408.9" r="2.6"/>
		<path fill="#3E82C4" d="M-268.9,412.8h8.3c0.6,0,1-0.5,1-1c0-0.6-0.5-1-1-1h-8.3c-0.6,0-1,0.5-1,1    C-269.9,412.3-269.4,412.8-268.9,412.8z"/>
		<path fill="#3E82C4" d="M-272.2,425.9c0.2,0,0.4-0.1,0.6-0.2c0.5-0.3,0.6-1,0.2-1.4l-3.8-5.2c-0.3-0.5-1-0.6-1.4-0.2    c-0.5,0.3-0.6,1-0.2,1.4l3.8,5.2C-272.8,425.8-272.5,425.9-272.2,425.9z"/>
		<path fill="#3E82C4" d="M-254.1,418.9c-0.5-0.3-1.1-0.2-1.4,0.3l-3.3,5.1c-0.3,0.5-0.2,1.1,0.3,1.4c0.2,0.1,0.4,0.2,0.6,0.2    c0.3,0,0.7-0.2,0.9-0.5l3.3-5.1C-253.4,419.9-253.6,419.2-254.1,418.9z"/>
	</g>
</g>
</svg>