<?xml version="1.0" encoding="UTF-8"?>
<!-- Generator: Adobe Illustrator 18.1.1, SVG Export Plug-In . SVG Version: 6.00 Build 0)  -->
<svg version="1.1" id="Capa_1" xmlns="http://www.w3.org/2000/svg" xmlns:xlink="http://www.w3.org/1999/xlink" x="0px" y="0px" viewBox="-281 404.9 32 32" enable-background="new -281 404.9 32 32" xml:space="preserve">
<g>
	<g>
		<path fill="#2B90CF" d="M-253.8,424.8c1.4,0,2.5-1.1,2.5-2.5c0-0.9,0.3-1.7-0.4-2.1c-0.4-0.3-2.2-0.4-2.7-0.4    c-0.6,0-1.4,0.5-1.9,0.9c-0.5,0.5-0.1,0.9-0.1,1.7C-256.3,423.7-255.2,424.8-253.8,424.8z M-255.5,422c0.5-0.1,0.8,0.1,0.8,0.1    l0.8-0.4c0,0-0.4,0.6,0,0.4c0.8-0.3,1.7-0.2,2.1-0.1c0,0.1,0,0.2,0,0.3c0,1-0.8,1.9-1.9,1.9c-1,0-1.9-0.8-1.9-1.9    C-255.6,422.2-255.6,422.1-255.5,422z"/>
		<path fill="#2B90CF" d="M-249,428.9l-2.9-3.6h-3.3l-1.7-1.5c0,0,0,0,0,0l-1-0.8c0,0,0,0,0,0l-1.2-1l0.3-0.1l-2.9-8.3h1h0.7    l-0.3-0.6c0,0-0.7-1.4-1-2.7c0,0,0,0,0-0.1c0-0.3,0-0.5-0.1-0.7c0-0.1,0-0.1,0-0.2c0-1.2-0.1-2.9-3-2.9c-1.1,0-2,0.3-2.5,0.9    c-0.8,0.8-0.9,2-0.8,3c0,1.6-0.9,2.7-0.9,2.7l-0.6,0.7h1.7l-2.9,8.4l0.3,0.1l-1.1,1c-0.3-0.4-0.8-0.7-1.5-0.8c0-0.3-0.1-0.7-0.2-1    c-0.2-0.9-0.7-2.2-2.5-2.2c-2.3-0.1-3.1,1.8-3.2,2.7c0,0.1,0,0.3,0,0.4c-1.7,0.3-3,3.2-0.5,3.2c-0.1-1,0.3-1.8,0.6-2.3    c0.3,1.3,1.5,2.3,2.9,2.3c1.5,0,2.7-1.1,2.9-2.5c0.1,0.2,0.4,0.5,0.6,1l-1.8,1.6h-1.1h-1.3h-1.2l-3.4,4v0.7l0.1,0l0.6,0.2l2.8-3.1    l0.1,1.3l-1.9,3.7h1.9v3.2h-0.3v0.4h1.5v-0.4V432h0.6v3.2h0v0.4h1.5v-0.4h-0.3V432h2.5l-2.1-3.7l0.1-1.6l1.9-1.8    c0,0.1,0,0.1,0,0.2c0.8,0,1.2-0.7,1.2-1.4l1.6-1.6l-0.4-0.1l0.8,0.3l1.8-4.9l0.2,2.3l-2.9,8h3.4v7h-0.4v0.8h2v-0.8v-7h0.8v7v0.8h2    v-0.8h-0.4v-7h2.6l-2.6-8l0.1-2.8l2,5.5l0.3-0.1l0.2-0.1l4.2,4.8l0.1,4.8h0.5v3.2h-0.3v0.4h1.5V435v-3.2h0.5v3.2v0.4h1.5V435h-0.3    v-3.2h0.6v-4.1l2,2.1l0.6-0.2L-249,428.9L-249,428.9z M-275.8,424.4c-1.2,0-2.1-1-2.1-2.1c0,0,0,0,0-0.1l0,0c0,0,1.5,0.2,2,0v-1.1    c0,0,0.8,1.4,1.2,1.3c0-0.8,0.3-0.9,0.3-0.9s0.3,0.8,0.8,0.9C-273.7,423.5-274.6,424.4-275.8,424.4z M-263.8,412.2l0,0.9l0,0.1    l-0.8,1.3l-0.9-1.2V413v-0.4v-0.5c-0.8-0.4-1.3-1.2-1.3-2.1c0-0.4,0.1-0.8,0.3-1.1l1.2-0.1l3,0.3c0.1,0.3,0.2,0.6,0.2,0.9    C-262.1,411.1-262.8,411.9-263.8,412.2z"/>
	</g>
</g>
</svg>