<?xml version="1.0" encoding="UTF-8"?>
<!-- Generator: Adobe Illustrator 18.1.1, SVG Export Plug-In . SVG Version: 6.00 Build 0)  -->
<svg version="1.1" id="Capa_1" xmlns="http://www.w3.org/2000/svg" xmlns:xlink="http://www.w3.org/1999/xlink" x="0px" y="0px" viewBox="0 146.9 595.3 545" enable-background="new 0 146.9 595.3 545" xml:space="preserve">
<g>
	<g>
		<circle fill="#2B90CF" stroke="#545353" stroke-miterlimit="10" cx="493" cy="220.8" r="52.2"/>
		<path fill="#2B90CF" stroke="#545353" stroke-miterlimit="10" d="M527.6,286c-1-0.5-1.9-1-2.9-1.4c-5.8-3.8-12.5-6.7-19.2-8.1    l-12.9,12.9L480.1,276l0,0c-6.7,1.4-13.4,4.3-19.2,8.6c-1,0.5-1.9,1-2.9,1.4c-12.9,8.1-66.1-12.9-105-36.9    c-9.6-5.8-22-2.9-27.8,6.7c-0.5,0.5-0.5,1-0.5,1.4l-108.3-46l-4.3,10.1l110.7,47c0.5,6.2,3.8,12,9.6,15.8    c17.7,11,66.6,39.3,107.8,43.6V437c0,5.3,1,10.5,2.9,15.3c0,1-0.5,1.9-0.5,3.4v193.6c0,13.4,10.5,24,24,24c13.4,0,24-10.5,24-24    V483c1,0,1.9,0,2.9,0h0.5v166.3c0,13.4,10.5,24,24,24c13.4,0,24-10.5,24-24V459c1.4,1.4,3.4,2.9,5.3,4.3c2.9,1.4,6.2,2.4,9.6,2.4    c7.2,0,13.9-3.8,17.7-10.5C631.1,349.3,553.4,301.4,527.6,286z M493,392.4L493,392.4l-12.9-17.3l12.5-83.9h0.5l12.5,83.9    L493,392.4z M546.2,418.3V356C554.9,371.8,557.3,391.5,546.2,418.3z"/>
		<circle fill="#2B90CF" stroke="#545353" stroke-miterlimit="10" cx="208.8" cy="551.1" r="36.4"/>
		<path fill="#2B90CF" stroke="#545353" stroke-miterlimit="10" d="M233.3,596.6c-0.5-0.5-1.4-0.5-1.9-1c-4.3-2.9-8.6-4.8-13.4-5.8    l-9.1,9.1l-8.6-9.1l0,0c-4.8,1-9.6,3.4-13.4,5.8c-0.5,0.5-1.4,0.5-1.9,1c-11.5,6.7-36.9,23-44.6,51.8    c-7.7-29.2-33.6-45.1-44.6-51.8c-0.5-0.5-1.4-0.5-1.9-1c-4.3-2.9-8.6-4.8-13.4-5.8l-9.1,9.1l-8.6-9.1l0,0c-4.8,1-9.6,3.4-13.4,5.8    c-0.5,0.5-1.4,0.5-1.9,1c-13.9,8.6-49.8,30.7-46.5,74.8h28.8c-1-10.1,1-18.2,4.8-25.4v25.4h37.4l-8.6-12l8.6-59l0,0l8.6,59    l-8.6,12h37.4v-24.9c3.8,6.7,6.2,15.3,4.8,24.9h24.9h3.8h24.9c-1-10.1,1-18.2,4.8-25.4v25.4h37.4l-8.6-12l8.6-59l0,0l8.6,59    l-8.6,12h37.4v-24.9c3.8,6.7,5.8,15.3,4.8,24.9h28.8C283.1,627.3,247.2,605.2,233.3,596.6z"/>
		<circle fill="#2B90CF" stroke="#545353" stroke-miterlimit="10" cx="70.8" cy="551.1" r="36.4"/>
		<circle fill="#2B90CF" stroke="#545353" stroke-miterlimit="10" cx="351.7" cy="551.1" r="36.4"/>
		<path fill="#2B90CF" stroke="#545353" stroke-miterlimit="10" d="M376.1,596.6c-0.5-0.5-1.4-0.5-1.9-1c-3.8-2.9-8.6-4.8-13.4-5.8    l-9.1,9.1l-8.6-9.1l0,0c-4.8,1-9.6,3.4-13.4,5.8c-0.5,0.5-1.4,0.5-1.9,1c-13.9,8.6-49.8,30.7-46.5,74.8H310    c-1-10.1,1-18.2,4.8-25.4v25.4h37.4l-8.6-12l8.6-59l0,0l8.6,59l-8.6,12h37.4v-24.9c3.8,6.7,6.2,15.3,4.8,24.9h28.8    C425.9,627.3,390,605.2,376.1,596.6z"/>
		<path fill="#2B90CF" stroke="#545353" stroke-miterlimit="10" d="M282.6,468.2c-21.1,0-37.9,16.8-37.9,37.9    c0,21.1,16.8,37.9,37.9,37.9c21.1,0,37.9-16.8,37.9-37.9C320.5,484.9,303.2,468.2,282.6,468.2z"/>
		<path fill="#2B90CF" stroke="#545353" stroke-miterlimit="10" d="M308.5,553.5c-0.5,0-0.5-0.5-1-0.5c-0.5-0.5-1.4-0.5-1.9-1    c-4.3-2.9-9.1-4.8-13.9-6.2l-9.6,9.6l-9.1-9.6l0,0c-4.8,1-9.6,3.4-13.9,6.2c-0.5,0.5-1.4,0.5-1.9,1c-1,0.5-2.4,1.4-3.8,2.4    c-1,14.4-8.6,26.8-20.1,34.5c0.5,0.5,1.4,1,1.9,1.4c1,0.5,1.4,0.5,2.4,1c8.1,5.3,22,12.5,34.5,27.8l1-2.4l9.1-60.9l0,0l9.1,60.9    c11.5-15.3,24.4-20.6,32.6-25.9c1-0.5,1.4-1,2.4-1c0.5-0.5,1.4-1,1.9-1.4C316.7,581.7,309,568.3,308.5,553.5z"/>
		<path fill="#2B90CF" stroke="#545353" stroke-miterlimit="10" d="M95.7,589.4c0.5,0.5,1.4,1,1.9,1.4c1,0.5,1.4,0.5,2.4,1    c7.2,4.3,20.1,12.5,30.7,24.9l9.1-59.9l0,0l9.1,60.9l32.6-25.9c1-0.5,1.4-1,2.4-1c0.5-0.5,1.4-1,1.9-1.4    c-12-7.7-19.7-21.1-20.1-35.9c-0.5,0-0.5-0.5-1-0.5c-0.5-0.5-1.4-0.5-1.9-1c-4.3-2.9-9.1-4.8-13.9-6.2l-9.6,9.6l-9.1-9.6l0,0    c-4.8,1-9.6,3.4-13.9,6.2c-0.5,0-0.5,0.5-1,0.5c0,0,0,0,0,0.5C115.8,567.8,107.7,581.7,95.7,589.4z"/>
		<circle fill="#2B90CF" stroke="#545353" stroke-miterlimit="10" cx="139.8" cy="505.5" r="37.9"/>
	</g>
</g>
</svg>