<?xml version="1.0" encoding="UTF-8"?>
<!-- Generator: Adobe Illustrator 18.1.1, SVG Export Plug-In . SVG Version: 6.00 Build 0)  -->
<svg version="1.1" id="Capa_1" xmlns="http://www.w3.org/2000/svg" xmlns:xlink="http://www.w3.org/1999/xlink" x="0px" y="0px" viewBox="-281 405 31.9 31.9" enable-background="new -281 405 31.9 31.9" xml:space="preserve">
<g>
	<g>
		<rect x="-261.9" y="416.9" fill="#2B90CF" width="2.6" height="0.9"/>
		<circle fill="#2B90CF" cx="-277.3" cy="425.6" r="1.5"/>
		<circle fill="#2B90CF" cx="-274" cy="428" r="1.5"/>
		<circle fill="#2B90CF" cx="-270.1" cy="429.3" r="1.5"/>
		<circle fill="#2B90CF" cx="-265.9" cy="429.7" r="1.5"/>
		<circle fill="#2B90CF" cx="-261.7" cy="429.3" r="1.5"/>
		<circle fill="#2B90CF" cx="-258.2" cy="427.5" r="1.5"/>
		<circle fill="#2B90CF" cx="-255.2" cy="425" r="1.5"/>
		<circle fill="#2B90CF" cx="-279.4" cy="430.2" r="1.6"/>
		<circle fill="#2B90CF" cx="-275.7" cy="432.6" r="1.6"/>
		<circle fill="#2B90CF" cx="-271.3" cy="434.1" r="1.6"/>
		<circle fill="#2B90CF" cx="-266.6" cy="434.6" r="1.6"/>
		<circle fill="#2B90CF" cx="-261.8" cy="434.2" r="1.6"/>
		<circle fill="#2B90CF" cx="-257.5" cy="432.7" r="1.6"/>
		<circle fill="#2B90CF" cx="-253.9" cy="430.3" r="1.6"/>
		<circle fill="#2B90CF" cx="-250.7" cy="427.2" r="1.6"/>
		<path fill="#2B90CF" d="M-265.7,427.3c6.5,0,9.1-3.3,10-5v-0.6c-0.6,1.4-2.9,5.3-10,5.3c-8.6,0-11.4-4.6-11.5-4.7l0,0v0.4    C-276.4,423.8-273.2,427.3-265.7,427.3z"/>
		<path fill="#2B90CF" d="M-266,432c7.9,0,11.8-4.4,12.9-5.9v-0.4c-0.6,1-4.4,6.1-12.9,6.1c-9.1,0-12.9-4.7-13.1-5v0.4    C-278.2,428.2-274.2,432-266,432z"/>
		<circle fill="#2B90CF" cx="-267" cy="414.8" r="1.8"/>
		<path fill="#2B90CF" d="M-268.6,419.8l0,0.7h0.1v0.4v0.3l0.4,2h-0.4v0.6h1.4v-0.6h-0.1v-0.2v-0.1v-1.7h0.4v1.7v0.1v0.2h-0.2v0.6    h1.4v-0.6h-0.4l0.4-1.9v-0.3v-0.4h0.1l0.1-1.5h7.5v-10h-5.2l-2-2c0.1-0.1,0.1-0.3,0.1-0.4c0-0.4-0.4-0.8-0.8-0.8    c-0.4,0-0.8,0.4-0.8,0.8c0,0.1,0,0.3,0.1,0.4l-2.1,2.1h-6.8v10h6.6L-268.6,419.8z M-266.2,407.1c0.1,0.1,0.3,0.2,0.5,0.2    c0.2,0,0.3-0.1,0.5-0.1l1.8,1.8h-4.5L-266.2,407.1z M-274.6,418.3v-8.7h16.2v8.7h-6.8l0-0.6l3.6-1.6l-0.4-0.8l-2.7,1.3l-1.6,0.1    l-0.7,0.8l-0.7-0.8l-1.1,0.1l-3-1.5l-0.4,0.9l3.4,1.7l0,0.3L-274.6,418.3L-274.6,418.3z"/>
	</g>
</g>
</svg>