<?xml version="1.0" encoding="UTF-8"?>
<!-- Generator: Adobe Illustrator 18.1.1, SVG Export Plug-In . SVG Version: 6.00 Build 0)  -->
<svg version="1.1" id="Capa_1" xmlns="http://www.w3.org/2000/svg" xmlns:xlink="http://www.w3.org/1999/xlink" x="0px" y="0px" viewBox="0 0 595.3 841.9" enable-background="new 0 0 595.3 841.9" xml:space="preserve">
<g>
	<g id="Layer_5_41_">
		<g>
			<path fill="#2B90CF" d="M204,242.1c-82.7,0-149.7,67-149.7,149.7v47.6c0,40.7,13.5,77.7,39.8,104.7c3.7,2.6,5.9,0.8,7.5-0.2     c12-7.7,25.9-15.7,41.6-19.6l0,0c9.5-2.4,13.1-3.7,20.1-5.4c3.5-0.8,3.8-3-0.9-4.3c-42.7-12.1-64-53.2-64-102c0,0,0-24.5,0-32.6     c0-3.3,1.6-4.4,4.2-4.4c8.2,0,26.3,0,33.5,0c2.9,0,3.6-1.9,4.2-4.5c1.6-6.2,4.9-35,9-34.9c4.1,0.1,7.1,29.1,8.5,35.2     c0.6,2.5,1.3,4.2,4,4.2c5.3,0,12.1,0,19.8,0c40.7,0,108,0,124.4,0c2.4,0,3.7,1.5,3.7,4.6c0,8.1,0,32.4,0,32.4     c0,49.6-21.9,91.3-66,102.6c-3.8,1-3.2,2.7-0.2,3.1c6.6,0.9,9.9,2.5,19.6,4.6c15.9,3.8,33.1,12.4,45.9,19.9c1.4,0.8,3.7,2,7.2-1     c25.3-26.8,37.6-62.6,37.6-102.3v-47.6C353.7,309.1,286.7,242.1,204,242.1z"/>
			<path fill="#2B90CF" d="M277.3,547.4c-5.2-2.1-10.7-4-16.4-5.6c-0.8-0.2-2-0.8-3.5-0.8c-0.8,0-2,0.3-3.4,1.5     c-2.8,1.7-5.5,3.2-8.4,4.5c-12.3,5.4-25.1,7.7-40,7.7c-19.8,0-36.1-4.2-51.8-13.7c-2.2-1.8-3.7-1-4.5-0.8     c-47.9,11.2-81.5,40.4-81.5,95.8v25.8l0,0c0,6.3,0.1,38.3,0.1,50.7c0,3.5-0.1,5.7,4.9,5.7c26.5,0.2,220.9,0.4,262.1,0.1     c5.1,0,4.9-2.2,4.9-5.7c0-12.4,0.1-42.9,0.1-49.2c0,0,0,0,0,0v-25.9C340,589.7,315,561.5,277.3,547.4z M209.6,657.8     c-0.7,1.4-1.8,3.5-4.9,3.5c-2.8,0-4.3-2.4-5.1-3.8c-14-26.3-80.6-82.4-80.6-82.4c-0.8-1.1,0.2-2,0.8-2.3     c4.9-1.7,23.5-16.7,28.7-17.9c0.8-0.2,2.6-0.6,4.5,0.8c15.8,9.6,32,13.7,51.8,13.7c15,0,27.8-2.4,40-7.7c2.8-1.4,5.6-2.9,8.4-4.5     c1.4-1.1,2.6-1.4,3.4-1.4c1.5,0,2.7,0.5,3.5,0.7c4.5,1.2,22.4,16.2,26.7,17.8c1.1,0.4,2.7,1.7,1.7,3.2     C288.6,577.6,222.5,631.6,209.6,657.8z M305.5,650h-51v-11h51V650z"/>
			<path fill="#2B90CF" d="M409.5,260.3c-1.8,0-3.3-1.5-3.3-3.3v-56.2c0-1.8-1.5-3.3-3.3-3.3h-12.5c-1.8,0-3.3,1.5-3.3,3.3l0,75.3     c0,1.8,1.5,3.3,3.3,3.3h73.8c1.8,0,3.3-1.5,3.3-3.3v-12.5c0-1.8-1.5-3.3-3.3-3.3L409.5,260.3L409.5,260.3z"/>
			<path fill="#2B90CF" d="M399,123.3c-42,0-79.8,18.3-105.8,47.3c-10.5,11.8-17.9,22.6-24.1,37.4c-1.1,2.7,1.3,3.4,2.6,3.8     c6,1.7,11.9,3.8,17.6,6.2c1.4,0.6,3.9,1.3,5.3-1c5-11.5,10.5-19.2,18.7-28.4c21.1-23.5,51.7-38.4,85.8-38.4     c63.6,0,115.1,51.5,115.1,115.1c0,3.8-0.2,7.5-0.5,11.2c-5.6,58.3-54.8,103.8-114.5,103.8c-8.2,0-8.4,5.1-8.4,5.1     s-0.4,13.2,0.1,18.2c0.3,3.6,3.3,3.5,3.3,3.5c2.8,0.2,2.3,0,5.1,0c74.6,0,135.7-57.5,141.5-130.6c0.3-3.7,0.4-7.5,0.4-11.3     C540.9,186.9,477.4,123.3,399,123.3z"/>
		</g>
	</g>
</g>
</svg>